<?xml version="1.0" encoding="utf-8"?>
<!-- Generator: Adobe Illustrator 27.7.0, SVG Export Plug-In . SVG Version: 6.00 Build 0)  -->
<svg version="1.1" id="Layer_1" xmlns="http://www.w3.org/2000/svg"
    xmlns:xlink="http://www.w3.org/1999/xlink" x="0px" y="0px"
    viewBox="0 0 4000 4000" style="enable-background:new 0 0 4000 4000;" xml:space="preserve">
<style type="text/css">
	.st0{opacity:0;}
	.st1{fill:none;}
	.st2{fill:#00FF67;}
	.st3{fill:#0F156D;}
	.st4{fill:#F9A429;}
	.st5{opacity:0.3;}
	.st6{fill:#03036B;}
	.st7{fill:#FFFFFF;}
	.st8{opacity:0.6;}
	.st9{fill:#EF6583;}
	.st10{fill:#FF5FAF;}
	.st11{fill:#000072;}
	.st12{fill:#B199C5;}
	.st13{font-family:'BrushScriptMT';}
	.st14{font-size:357.8592px;}
</style>
<g>
	<g class="st0">
		<path class="st1" d="M4393.29,4484.38H-405.14c-165.64,0-299.91-134.27-299.91-299.91V-362.02
			c0-165.64,134.27-299.91,299.91-299.91h4798.43c165.64,0,299.91,134.27,299.91,299.91v4546.49
			C4693.2,4350.11,4558.92,4484.38,4393.29,4484.38z"/>
	</g>
	<g>
		<g>
			<g>
				<path class="st2" d="M739.3,3984.96l977.04-915.55c24.45-22.91,62.97-24.9,89.87-4.63l200.25,150.87
					c28.11,21.18,68.64,17.94,92.66-7.41l1285.04-1356.07l105.73,87.1l120.95-767.07l-802.29,264.36l123.56,101.21L1923.64,2609.56
					l-227.15-165.91L443.45,3711.21L739.3,3984.96z"/>
			</g>
			<g>
				<path class="st3" d="M439.87,3707.99c23.24-28.98,47.61-56.95,72.23-84.69c24.65-27.71,49.77-55.01,75.21-82.01
					c12.72-13.5,25.53-26.92,38.41-40.28l38.77-39.96l77.6-79.87c103.55-106.41,207.2-212.73,311.18-318.76
					c103.95-106.05,208.11-211.92,312.59-317.49c104.5-105.56,209.19-210.95,314.65-315.65l0.14-0.14
					c7.83-7.78,20.44-8.54,29.21-2.12L1937,2592.93l-29.72,2.64l1008.48-1071.78l2.04,29.87l-123.56-101.21
					c-9.2-7.54-10.26-20.76-2.35-29.54c2.61-2.9,5.96-4.97,9.49-6.15l802.29-264.36c11.47-3.78,23.98,2.02,27.94,12.96
					c1.19,3.28,1.45,6.74,0.96,9.96l-120.95,767.07c-1.8,11.44-12.99,19.32-24.99,17.6c-4.24-0.61-8.07-2.39-11.1-4.87l-105.73-87.1
					l30.67-1.81c-103.36,111.34-207.14,222.32-311.04,333.2c-103.93,110.85-207.98,221.6-312.19,332.2
					c-208.43,221.21-417.26,442.08-626.56,662.54l-19.61,20.68l-9.81,10.34l-1.28,1.34l-1.8,1.76l-3.65,3.48
					c-1.19,1.19-2.58,2.18-3.89,3.25l-4.01,3.13c-22.15,15.9-51.47,22.07-78.44,16.28c-13.48-2.82-26.35-8.47-37.31-16.35
					l-2.02-1.42l-1.43-1.08l-2.86-2.16l-5.73-4.33l-11.46-8.66l-45.83-34.63l-91.66-69.27l-22.91-17.32l-11.45-8.66l-5.72-4.34
					l-0.72-0.54c-0.22-0.17-0.32-0.21-0.49-0.33l-0.89-0.6c-0.59-0.4-1.17-0.81-1.75-1.24c-4.85-2.99-10.32-4.94-16.02-5.81
					c-5.71-0.93-11.64-0.42-17.2,1.06c-1.43,0.28-2.73,0.88-4.1,1.33c-0.7,0.19-1.32,0.55-1.97,0.85c-0.65,0.3-1.3,0.6-1.96,0.88
					l-1.84,1.08c-0.6,0.38-1.29,0.63-1.83,1.1c-0.57,0.42-1.16,0.83-1.75,1.23c-0.29,0.21-0.6,0.38-0.88,0.61l-0.8,0.71
					c-0.54,0.47-1.09,0.93-1.65,1.37c-0.21,0.15-0.7,0.62-1.14,1.02l-1.31,1.22l-5.23,4.87l-10.45,9.74l-41.81,38.98l-83.63,77.96
					l-167.41,155.77l-335.1,311.27c-56.01,51.72-111.17,104.26-168.94,154.28c-28.84,25.05-58.13,49.66-88.05,73.67
					c-14.95,12.01-30.09,23.84-45.43,35.48c-15.35,11.62-30.83,23.12-46.85,34.09c-0.85,0.58-2.02,0.39-2.63-0.41
					c-0.49-0.65-0.46-1.51,0.02-2.12c11.78-15.09,24.11-29.64,36.56-44.07c12.47-14.42,25.14-28.64,37.99-42.69
					c25.69-28.11,52.01-55.6,78.78-82.66c53.45-54.2,109.51-105.88,164.72-158.38l332.22-314.05l166.25-156.89l83.2-78.37
					l41.6-39.19l10.4-9.8l5.2-4.9l1.3-1.23c0.44-0.41,0.8-0.77,1.51-1.38l3.8-3.28l1.92-1.62c0.65-0.52,1.35-1,2.03-1.5l4.13-2.92
					c1.35-1.01,2.87-1.79,4.31-2.67c1.47-0.85,2.93-1.71,4.41-2.52l4.61-2.19c1.54-0.71,3.07-1.46,4.69-2.01
					c3.2-1.18,6.38-2.42,9.7-3.23c13.15-3.64,27.1-4.72,40.67-2.74c13.56,1.9,26.75,6.59,38.28,13.69l4.19,2.83l2.08,1.44l0.99,0.7
					l0.72,0.54l5.75,4.31l11.49,8.62l22.97,17.25l91.88,69l45.94,34.5l11.48,8.63l5.74,4.31l2.87,2.16l1.44,1.08
					c0.4,0.28,0.63,0.41,0.94,0.62c4.62,3.27,9.86,5.54,15.41,6.7c5.55,1.23,11.42,1.1,16.98-0.08c5.56-1.19,10.84-3.44,15.36-6.7
					c0.53-0.45,1.07-0.89,1.62-1.32c0.53-0.45,1.16-0.79,1.61-1.33c0.49-0.5,0.99-0.98,1.51-1.46l0.77-0.71l1.18-1.24l9.8-10.35
					l19.59-20.69c208.88-220.83,418.22-441.25,627.97-661.33c104.87-110.04,209.91-219.94,315.07-329.73
					c105.19-109.77,210.49-219.43,316.22-328.73l0.15-0.16c8.06-8.33,21.58-8.99,30.52-1.65l105.73,87.1l-36.09,12.73l120.95-767.07
					l28.91,22.91l-802.29,264.36l7.14-35.69l123.56,101.21c9.2,7.54,10.26,20.76,2.35,29.54c-0.08,0.09-0.23,0.25-0.31,0.34
					L1940,2623.55c-7.7,8.19-20.7,9.19-29.72,2.64l-227.15-165.91l29.35-2.26c-103.38,106.56-207.54,212.43-311.88,318.13
					c-104.36,105.68-209.04,211.08-313.93,316.29c-104.86,105.23-210.05,210.17-315.34,315.02l-79.03,78.58l-39.54,39.26
					c-13.23,13.05-26.52,26.03-39.9,38.94c-26.77,25.81-53.86,51.33-81.42,76.43c-27.59,25.07-55.43,49.92-84.4,73.76
					c-2.07,1.7-5.19,1.48-6.98-0.49C438.49,3712.22,438.47,3709.73,439.87,3707.99z"/>
			</g>
		</g>
		<g>
			<g>
				<path class="st4" d="M739.3,2479.89c0,0,172.29-205.47,459.45-130.81c287.16,74.66-151.41,326.84-151.41,326.84L739.3,2479.89z"
					/>
			</g>
			<g class="st5">
				<path class="st6" d="M739.3,2479.89c0,0,172.29-205.47,459.45-130.81c287.16,74.66-151.41,326.84-151.41,326.84L739.3,2479.89z"
					/>
			</g>
			<g>
				<path class="st3" d="M1047.35,2696.87c-4.26,0-8.51-1.18-12.2-3.53l-308.04-196.03c-5.12-3.26-8.57-8.41-9.51-14.21
					c-0.94-5.8,0.71-11.71,4.55-16.29c1.87-2.23,46.7-55.08,128.49-98.61c48.09-25.6,99.11-42.71,151.66-50.85
					c65.65-10.18,133.69-6.3,202.24,11.52c68.8,17.89,106.77,48.12,112.86,89.84c4.25,29.15-8.08,62.33-36.65,98.62
					c-21,26.66-51.13,55.64-89.57,86.13c-64.49,51.14-129.73,88.82-132.48,90.4C1055.2,2695.87,1051.27,2696.87,1047.35,2696.87z
					 M772.83,2476.04l274.91,174.95c21.54-13.09,69.43-43.29,115.71-80.03c76.18-60.48,115.39-112.5,110.43-146.48
					c-3.44-23.56-30.66-42.13-80.9-55.19c-113.35-29.47-221.32-17.53-320.91,35.49C824.93,2429.86,791.26,2458.39,772.83,2476.04z"
					/>
			</g>
		</g>
		<g>
			<g>
				<path class="st4" d="M2281.21,2194.78c-64.88,478.47-519.28,665.08-655.71,710.69c-28.73,9.7-55.06,24.9-77.05,45.02
					c-50.04,45.67-96.29,97.11-142.69,145.6c-111.76,116.77-224.28,216.43-391.5,177.12C760.21,3213.5,607,3059.19,650.51,2941.38
					c6.19-16.64,15.26-29.75,26.32-39.97c67.22-62.31,207.78-18.94,207.78-18.94c6.46-27.39,14.91-53.08,24.95-76.99
					c75.88-180.98,238.71-266.43,238.71-266.43c-124.13-104.71-147.02-227.5-131.9-334.64c20.83-147.5,113.68-265.18,113.68-265.18
					c-0.34-0.59-0.69-1.11-1.03-1.7c-13.54-21.69-24.47-42.59-33.06-62.77c-63.44-148.09-4.88-254.96,43.3-311.18
					c25.57-29.81,48.18-45.41,48.18-45.41c197.88,69.26,373.15,114.67,527.6,142.26c121.8,21.89,230.74,32.7,327.58,35.45
					c493.23,14.42,677.23-177.7,677.23-177.7c3.92,8.72,7.7,17.36,11.27,25.88c2.96,7.14,5.84,14.15,8.52,21.1c0,0,0,0.07,0,0.13
					C2972.59,2160.58,2281.21,2194.78,2281.21,2194.78z"/>
			</g>
			<g>
				<path class="st7" d="M1405.78,3096.11c-111.76,116.74-224.33,216.38-391.54,177.07c-254.07-59.7-407.21-214-363.7-331.79
					c43.5-117.79,234.07-58.93,234.07-58.93c6.44-27.37,14.94-53.06,24.97-77.01C978.36,2891.12,1136.92,3047.8,1405.78,3096.11z"/>
			</g>
			<g>
				<path class="st7" d="M1590.34,2376.7c-264.54,87.42-584.74-77.5-417.68-381.15c167.06-303.58,486.45-328.51,486.45-328.51
					s22.12-13.62,55.95-29.95c121.8,21.85,230.7,32.68,327.6,35.4c4.83,14.03,8.42,29.95,10.62,48.04
					C2086.32,1996.38,1854.88,2289.21,1590.34,2376.7z"/>
			</g>
			<g class="st5">
				<path class="st6" d="M1563.29,2519.07c-201.46-105.1-415.01,19.99-415.01,19.99c-124.13-104.71-147.02-227.5-131.9-334.64
					c14.68,62.19,40.73,112.15,67.27,150.13c38.27,54.77,106.19,82.88,174.7,74.86C1479.98,2403.45,1561.08,2515.92,1563.29,2519.07
					z"/>
			</g>
			<g class="st5">
				<path class="st6" d="M2281.21,2194.78c-64.88,478.47-519.28,665.08-655.71,710.69c-28.73,9.7-55.06,24.9-77.05,45.02
					c-50.04,45.67-96.29,97.11-142.69,145.6c-111.76,116.77-224.28,216.43-391.5,177.12C760.21,3213.5,607,3059.19,650.51,2941.38
					c6.19-16.64,15.26-29.75,26.32-39.97c10.72,52.55,55.74,179.54,245.03,262.43c206.83,90.61,355.12-73.6,510.08-234.81
					c49.1-51.08,110.81-89.57,179.49-112.21c42.18-13.9,95.12-33.31,152.15-58.87c41.28-18.5,66.8-59.44,62.77-102.76
					c-5.95-63.86,9.64-162.45,133.52-237.62c167.35-101.57,254.04-148.59,196.47-230.11c-15.1-21.39,0.68-50.32,27.68-51.77
					c179.7-9.62,606.93-85.31,547.1-591.64C2988.95,2159.79,2281.21,2194.78,2281.21,2194.78z"/>
			</g>
			<g class="st5">
				<path class="st6" d="M2741.92,1615.73c-102.41,172.99-425.8,366.02-1150.8,181.83c0,0-281.53-69.39-451.85-233.99
					c25.57-29.81,48.18-45.41,48.18-45.41c197.88,69.26,373.15,114.67,527.6,142.26c121.8,21.89,230.74,32.7,327.58,35.45
					c493.23,14.42,677.23-177.7,677.23-177.7c3.92,8.72,7.7,17.36,11.27,25.88c2.96,7.14,5.84,14.15,8.52,21.1c0,0,0,0.07,0,0.13
					C2741.03,1582.38,2741.79,1599.29,2741.92,1615.73z"/>
			</g>
			<g class="st5">
				<path class="st6" d="M1401.49,1743.9c-120.76,20.38-264.69,190.68-264.69,190.68l-7.77,2.95
					c-13.54-21.69-24.47-42.59-33.06-62.77C1256.05,1732.37,1401.49,1743.9,1401.49,1743.9z"/>
			</g>
			<g>
				<g>
					<path class="st3" d="M2392.29,1684.49c-1.57,1.76-2.86,3.23-4.29,4.77l-4.22,4.5c-2.8,2.99-5.66,5.89-8.55,8.77
						c-5.75,5.77-11.59,11.42-17.56,16.94c-11.94,11.03-24.23,21.69-36.92,31.91c-12.66,10.25-25.7,20.1-39.04,29.57
						c-13.38,9.42-27.1,18.45-41.14,27.01l-10.58,6.36l-10.76,6.1c-3.56,2.06-7.23,3.99-10.86,5.95c-3.64,1.95-7.26,3.93-10.98,5.75
						c-14.7,7.56-29.8,14.52-45.32,20.54c-3.89,1.5-7.83,2.87-11.74,4.31c-3.91,1.42-7.96,2.58-11.92,3.86
						c-1.99,0.63-3.98,1.25-5.98,1.84l-6.08,1.62c-4.05,1.06-8.1,2.1-12.18,3.04c-4.13,0.82-8.22,1.7-12.34,2.45
						c-4.08,0.86-8.31,1.3-12.45,1.91c-8.27,1.23-16.75,1.63-25.11,1.88c-2.41,0.07-4.43-1.73-4.51-4.03
						c-0.05-1.65,0.9-3.1,2.33-3.82l0.16-0.08c14.62-7.32,28.99-13.95,43.03-21.11c3.53-1.73,6.98-3.66,10.48-5.4l5.23-2.65
						c1.72-0.95,3.44-1.87,5.17-2.79l10.34-5.49c3.42-1.88,6.81-3.81,10.25-5.62c3.45-1.78,6.77-3.85,10.18-5.71
						c3.4-1.88,6.81-3.74,10.14-5.75l10.1-5.82l9.96-6.06c13.21-8.18,26.25-16.62,38.99-25.5c12.74-8.88,25.31-17.99,37.67-27.38
						c12.34-9.42,24.49-19.08,36.47-28.93c11.96-9.87,23.79-19.9,35.4-30.13c5.79-5.13,11.6-10.23,17.29-15.43l8.49-7.79l8.17-7.62
						l0.52-0.48c8.68-8.09,22.59-7.95,31.08,0.33C2399.19,1664.08,2399.47,1676.34,2392.29,1684.49z"/>
				</g>
				<g>
					<path class="st3" d="M1112.45,1926.69c1.35-1.7,2.43-3.03,3.65-4.48l3.56-4.18c2.37-2.77,4.77-5.48,7.21-8.15
						c4.87-5.35,9.77-10.63,14.85-15.75c2.52-2.58,5.06-5.13,7.63-7.66c2.55-2.55,5.14-5.05,7.74-7.54
						c5.23-4.96,10.53-9.84,15.9-14.65c10.7-9.66,21.86-18.85,33.2-27.81c11.3-9.01,23.11-17.45,35.08-25.64
						c5.96-4.13,12.08-8.06,18.17-12c6.23-3.77,12.38-7.63,18.73-11.21c12.6-7.29,25.44-14.21,38.7-20.36
						c26.47-12.29,54.77-21.55,83.97-25.2c1.15-0.14,2.21,0.63,2.36,1.73c0.11,0.82-0.31,1.58-1,1.98l-0.05,0.03
						c-12.55,7.14-24.96,13.74-37.03,20.86c-12.06,7.11-24,14.16-35.63,21.67c-23.51,14.58-45.7,30.99-66.93,48.39
						c-21.22,17.42-41.36,36.03-60.63,55.34c-4.82,4.83-9.57,9.72-14.24,14.67c-4.7,4.92-9.37,9.87-13.91,14.91
						c-4.55,5.04-9.09,10.06-13.49,15.16l-6.55,7.64l-3.19,3.81l-2.97,3.62l-0.33,0.4c-7.48,9.11-21.29,10.71-30.84,3.58
						C1106.93,1948.79,1105.21,1935.79,1112.45,1926.69z"/>
				</g>
				<g>
					<path class="st3" d="M2281.24,2215.73c-6.58-0.44-13.16-1.37-19.74-2.36c-6.58-1.04-13.16-2.27-19.74-3.64
						c-6.58-1.38-13.16-2.8-19.74-4.71c-3.29-0.96-6.58-1.99-9.87-3.22c-3.29-1.17-6.58-2.51-9.87-4.12
						c-1.68-0.83-2.34-2.8-1.48-4.4c0.34-0.63,0.86-1.11,1.48-1.41c3.29-1.62,6.58-2.95,9.87-4.12c3.29-1.23,6.58-2.26,9.87-3.22
						c6.58-1.91,13.16-3.33,19.74-4.71c6.58-1.37,13.16-2.59,19.74-3.64c6.58-0.99,13.16-1.91,19.74-2.36
						c12.13-0.82,22.67,7.9,23.52,19.47c0.86,11.57-8.29,21.61-20.42,22.42C2283.34,2215.8,2282.22,2215.79,2281.24,2215.73z"/>
				</g>
				<g>
					<path class="st3" d="M1137.44,2520.83l1.82-0.94l1.66-0.84l3.24-1.6c2.14-1.03,4.27-2.07,6.4-3.04c4.26-2,8.52-3.88,12.82-5.68
						c8.58-3.64,17.22-7.03,25.95-10.17c4.37-1.56,8.73-3.13,13.14-4.57l6.6-2.21l6.64-2.07c2.22-0.67,4.43-1.38,6.66-2.02l6.7-1.9
						c4.45-1.3,8.95-2.46,13.44-3.62c35.97-9.17,72.93-15.16,110.22-16.65c9.3-0.52,18.65-0.48,27.96-0.48l13.98,0.51l3.49,0.13
						l3.49,0.26l6.97,0.54l6.96,0.54c2.32,0.18,4.63,0.53,6.94,0.78c4.62,0.57,9.25,1.07,13.85,1.71l13.76,2.28
						c4.59,0.7,9.1,1.86,13.64,2.82c4.52,1.06,9.06,1.97,13.5,3.32l13.32,3.88c2.21,0.64,4.36,1.52,6.55,2.26l6.5,2.34l6.47,2.37
						c2.13,0.85,4.23,1.81,6.33,2.72c4.21,1.83,8.39,3.69,12.54,5.57c4.06,2.12,8.1,4.22,12.09,6.4l5.97,3.25
						c1.94,1.18,3.85,2.41,5.76,3.63c3.82,2.42,7.6,4.88,11.31,7.4c0.74,0.5,0.91,1.48,0.38,2.18c-0.43,0.57-1.19,0.79-1.86,0.58
						l-0.05-0.02c-34.34-11.01-68.39-19.52-103.11-23.29c-8.62-1.2-17.34-1.68-25.98-2.44c-4.34-0.23-8.7-0.33-13.04-0.5
						c-2.17-0.06-4.33-0.2-6.51-0.19l-6.52,0.05l-6.51,0.04l-3.25,0.02l-3.26,0.15l-13.01,0.61c-8.66,0.72-17.31,1.22-25.93,2.35
						c-34.48,3.95-68.44,11.64-101.49,21.82c-4.13,1.27-8.26,2.55-12.35,3.96l-6.14,2.06c-2.05,0.69-4.07,1.45-6.1,2.17l-6.1,2.16
						l-6.06,2.27c-4.05,1.48-8.04,3.09-12.04,4.67c-7.97,3.24-15.91,6.52-23.68,10.05c-1.96,0.86-3.88,1.76-5.8,2.67
						c-1.94,0.88-3.85,1.78-5.75,2.69c-1.92,0.9-3.78,1.83-5.65,2.75l-2.74,1.39l-2.45,1.29l-0.58,0.31
						c-10.63,5.58-23.99,1.88-29.84-8.25c-5.85-10.13-1.98-22.87,8.65-28.45L1137.44,2520.83z"/>
				</g>
			</g>
			<g>
				<path class="st3" d="M1086.33,3302.82c-25.3,0-51.03-3.1-77.31-9.28c-84.87-19.95-163.48-51.58-227.32-91.47
					c-61.67-38.53-108.38-83.81-135.08-130.93c-26.65-47.03-32.45-94.3-16.79-136.71c21.17-57.32,74.45-87.61,154.08-87.61
					c33.48,0,64.66,5.42,84.74,9.9c13.47-47.95,34.1-94.07,61.49-137.39c25.05-39.62,55.77-76.99,91.3-111.05
					c35.94-34.45,69.36-58.43,91.07-72.49c-58.71-55.57-96.68-119.7-112.99-190.97c-14.49-63.31-11.89-132.02,7.74-204.23
					c26.58-97.76,76.62-174.32,96.67-202.4c-35.39-59.73-54.68-118.91-57.37-176.1c-2.33-49.38,7.64-97.18,29.61-142.08
					c37.22-76.05,95.92-117.11,98.4-118.82c5.92-4.09,13.59-5.09,20.45-2.69c584.89,204.75,964.39,195.03,1179.74,150.82
					c121.3-24.9,204.28-63.11,252.53-90.78c52.2-29.93,76.1-54.3,76.34-54.55c5.03-5.26,12.5-7.69,19.85-6.51
					c7.36,1.18,13.57,5.87,16.51,12.41c88.42,196.09,92.66,357.71,12.61,480.37c-31.47,48.22-76.06,90.11-132.53,124.51
					c-44.59,27.16-96.66,49.73-154.77,67.09c-72.13,21.55-134.97,29.6-164.72,32.44c-74.64,477.11-528.98,664.56-667.8,710.99
					c-26.16,8.75-49.43,22.32-69.16,40.34c-37.33,34.09-73.21,72.16-107.9,108.97c-63.71,67.59-123.88,131.44-194.16,175.14
					C1204.48,3285.21,1146.62,3302.82,1086.33,3302.82z M784.05,2888.75c-46.03,0-95.27,12.18-112.78,59.59
					c-11.44,30.96-6.59,66.54,14,102.89c49.62,87.57,177.7,164.83,334.26,201.64c171.15,40.23,284-79.51,403.49-206.29
					c35.24-37.39,71.67-76.05,110.19-111.22c24.29-22.18,52.89-38.87,85.01-49.62c134.44-44.96,577.99-227.87,641.22-693.65
					c1.36-10.03,10.05-17.71,20.65-18.23c0.78-0.04,79.85-4.3,173.14-32.32c84.52-25.38,198.61-76.1,262.14-173.58
					c68.29-104.78,66.93-244.06-3.94-414.28c-42.89,33.52-144.06,98.15-322.7,135.6c-141.4,29.64-302.84,36.1-479.85,19.22
					c-216.93-20.69-458.19-76.73-717.26-166.59c-16.36,13.56-52.18,47.03-76.42,97.39c-42.58,88.46-31.25,185.77,33.66,289.22
					c4.59,7.31,4.07,16.53-1.29,23.34c-0.66,0.84-67.48,86.7-98.1,200.4c-40.1,148.95-1.96,273.8,113.37,371.09
					c5.35,4.52,8.07,11.23,7.28,18c-0.79,6.77-4.99,12.75-11.25,16.04c-0.48,0.25-51.06,27.21-107.33,81.42
					c-51.44,49.55-118.43,132.84-145.47,248.23c-1.35,5.75-5.18,10.7-10.55,13.62c-5.37,2.93-11.78,3.55-17.67,1.73
					C876.99,2902.15,832.29,2888.75,784.05,2888.75z"/>
			</g>
		</g>
		<g>
			<g>
				<path class="st4" d="M2235.84,2822.97c-35.53,28.83-78.84,49.73-126.88,58.65c-1.03,0.2-2.06,0.39-3.09,0.52
					c-182.62,32.57-248.13-84.33-248.13-84.33c39.45-15.79,92.86-62.31,92.86-62.31c-32.58-15.6-56.77-37.94-72.72-63.82
					c-52.44-84.72-18.76-207.78,90.11-258.04c21.79-10.16,42.82-17.1,62.75-21.75c128.39-29.68,261.53,42.2,298.03,163.35
					C2358.12,2652.94,2316.47,2758.1,2235.84,2822.97z"/>
			</g>
			<g>
				<path class="st7" d="M2235.87,2822.97c-35.59,28.84-78.88,49.71-126.92,58.65c-184.93,34.42-251.21-83.78-251.21-83.78
					c39.48-15.85,92.87-62.35,92.87-62.35c-32.59-15.57-56.76-37.91-72.73-63.82c0,0,64.01,42.8,189.32-52.99
					C2179.92,2532.52,2370.7,2637.25,2235.87,2822.97z"/>
			</g>
			<g class="st5">
				<path class="st6" d="M2105.87,2882.14c-182.62,32.57-248.13-84.33-248.13-84.33c39.45-15.79,92.86-62.31,92.86-62.31
					c108.19,0,171.9-102.74,229.5-97.04C2180.1,2638.45,2297.7,2788.24,2105.87,2882.14z"/>
			</g>
			<g class="st8">
				<path class="st7" d="M1889.65,2688.14c-26.6-77.95,9.54-174.21,101.35-216.59c20.93-9.76,41.14-16.43,60.29-20.9
					c123.36-28.52,251.27,40.54,286.34,156.95c0.09,0.29,0.16,0.58,0.24,0.88c-0.87-17.8-3.82-35.64-9.1-53.24
					c-36.5-121.16-169.63-193.04-298.03-163.35c-19.93,4.65-40.97,11.6-62.75,21.75c-108.87,50.26-142.55,173.31-90.11,258.04
					C1881.38,2677.36,1885.35,2682.83,1889.65,2688.14z"/>
			</g>
			<g>
				<path class="st3" d="M1962.42,2717.8c-0.52-0.31-0.32-0.2-0.4-0.25c-0.06-0.03,0.06,0.02,0.08,0.02l0.38,0.15l1.08,0.43
					c0.81,0.3,1.69,0.62,2.64,0.89c1.89,0.55,3.91,1.03,6.01,1.4c4.2,0.75,8.67,0.93,13.23,0.77c9.14-0.39,18.74-2.7,28.24-6.43
					c9.5-3.79,18.9-8.99,27.98-15.11c9.05-6.18,17.83-13.23,26.21-20.91c9.22-8.45,18.93-16.8,29.35-24.52
					c2.56-1.96,5.3-3.82,7.95-5.71c2.76-1.83,5.48-3.66,8.37-5.4c5.71-3.49,11.66-6.8,18.13-9.66l4.98-1.99
					c1.73-0.6,3.46-1.21,5.2-1.76c1.84-0.47,3.6-0.99,5.48-1.39c1.92-0.35,3.73-0.82,5.75-0.98l2.95-0.32l3.05-0.11l1.52-0.04
					c0.52,0.01,1.05,0.05,1.57,0.08c1.04,0.07,2.08,0.12,3.11,0.22c4.2,0.48,8.41,1.58,12.32,3.3c3.89,1.78,7.32,4.21,10.15,6.94
					c2.83,2.75,4.92,5.83,6.65,8.91c3.23,6.28,4.75,12.67,5.03,19.02c0.04,1.02-0.78,1.87-1.85,1.91c-0.62,0.02-1.18-0.23-1.56-0.65
					l-0.03-0.03c-4.11-4.71-8.19-9.01-12.49-12.17c-2.18-1.51-4.33-2.79-6.46-3.62c-2.15-0.8-4.19-1.27-6.17-1.44
					c-2.01-0.1-3.97,0.05-5.98,0.37l-1.54,0.36l-0.76,0.16l-0.79,0.23l-1.56,0.44l-1.6,0.59c-1.04,0.34-2.17,0.88-3.24,1.3
					c-1.09,0.46-2.2,1.06-3.29,1.57l-3.34,1.77l-3.34,1.98c-4.49,2.71-8.92,5.95-13.24,9.42c-4.32,3.46-8.56,7.21-12.71,11.11
					c-8.29,7.85-16.25,16.16-24.05,24.94c-8.66,9.52-18.09,18.66-28.64,27.02c-10.58,8.31-22.29,15.87-35.42,21.84
					c-13.16,5.86-27.82,10.18-43.51,11.05c-7.83,0.46-15.84,0-23.84-1.41c-4.01-0.7-8-1.73-12-3.05c-2-0.65-4.01-1.42-6.05-2.27
					c-1.04-0.44-2.05-0.89-3.15-1.44c-0.54-0.27-1.07-0.53-1.69-0.86l-0.94-0.51c-0.41-0.23-0.55-0.3-1.4-0.81
					c-10.23-6.22-13.24-19.17-6.72-28.92C1938.6,2714.45,1952.19,2711.58,1962.42,2717.8z"/>
			</g>
			<g>
				<path class="st3" d="M2044.55,2908.82c-65.8,0-112.68-19.62-142.75-38.76c-43.76-27.86-62.65-60.97-63.43-62.37
					c-2.91-5.2-3.39-11.32-1.33-16.88c2.07-5.55,6.49-10.02,12.19-12.3c20.43-8.19,45.89-26.23,63.9-40.13
					c-51.97-35.32-81.93-91.22-81.52-154.62c0.25-37.99,11.52-75.4,32.6-108.19c22.33-34.73,54.9-62.68,94.18-80.83
					c21.99-10.16,44.58-17.96,67.12-23.17c67.75-15.68,138.64-6,199.6,27.25c61.27,33.41,105.56,86.89,124.71,150.6
					c21.28,70.77,8.78,149.8-34.27,216.83c-45.59,70.96-119.36,120.52-202.39,135.97
					C2088.33,2906.83,2065.48,2908.82,2044.55,2908.82z M1890.43,2805.19c8.3,9.17,20.68,20.68,37.65,31.2
					c47.4,29.38,106.84,37.7,176.67,24.71c70.99-13.2,134.16-55.75,173.34-116.73c36.64-57.04,47.4-123.89,29.51-183.41
					c-32.78-109.06-154.67-175.76-271.71-148.68c-19.51,4.51-39.13,11.3-58.31,20.16c-62.5,28.88-101.59,86.96-102.01,151.58
					c-0.37,57.59,31.36,107.2,84.88,132.71c6.47,3.09,10.94,9.01,11.94,15.85c1,6.83-1.6,13.7-6.94,18.35
					C1963.55,2752.56,1926.92,2784.32,1890.43,2805.19z"/>
			</g>
		</g>
		<g>
			<g>
				
					<ellipse transform="matrix(0.5836 -0.812 0.812 0.5836 -1791.0779 1822.5704)" class="st7" cx="881.74" cy="2657.85" rx="239.24" ry="310.88"/>
			</g>
			<g class="st5">
				<path class="st6" d="M1043.46,2480.65c-11.65-9.66-23.69-18.51-35.99-26.61c92.3,106.56,108.36,244.75,30.67,329.87
					c-81.43,89.22-237.68,89.27-364.62,5.66c13.82,15.96,29.31,31.22,46.49,45.47c131.93,109.43,311.29,118.81,400.61,20.94
					C1209.94,2758.13,1175.39,2590.08,1043.46,2480.65z"/>
			</g>
			<g>
				<path class="st3" d="M952.42,2944.63c-5.72,0-11.49-0.15-17.32-0.46c-80.52-4.21-162.03-37.35-229.51-93.32
					c-67.48-55.97-113.18-128.34-128.69-203.78c-15.91-77.38,1.63-148.8,49.37-201.11c47.74-52.32,119.53-78.75,202.1-74.43
					c80.52,4.21,162.03,37.35,229.51,93.32c67.48,55.97,113.18,128.34,128.69,203.78c15.91,77.38-1.63,148.8-49.37,201.11
					C1092.83,2918.36,1027.69,2944.63,952.42,2944.63z M811.34,2412.91c-60.16,0-114.84,19.93-151.92,60.55
					c-81.22,89-47.57,244.12,75.01,345.8c60.14,49.88,132.26,79.39,203.07,83.1c68.76,3.61,127.89-17.75,166.54-60.1l0,0
					c38.65-42.35,52.64-101.15,39.4-165.56c-13.64-66.34-54.27-130.35-114.41-180.24C962.4,2441.18,882.99,2412.91,811.34,2412.91z"
					/>
			</g>
		</g>
		<g>
			<g>
				<path class="st4" d="M2803.47,1125.52c0,0,52.42,176.16,11.35,339.53c-6.06,24.18-16.48,50.1-31.99,76.64
					c-103.85,178.1-434.16,378.29-1179.26,194.13c0,0-630.65-151.16-595.96-546.85c7.43-85.79,46.19-183.03,129.34-292.66
					c0,0,27.93-214.64,159.89-487.83c131.96-273.19,259.68-391.49,340.19-374.96c80.44,16.46,181.35,143.52,250.75,362.63
					c0,0,201.61-19.21,391.22,91.96c0,0,342.5-357.14,518.12-257.85C2972.82,329.55,2836.3,965.36,2803.47,1125.52z"/>
			</g>
			<g>
				<path class="st7" d="M2782.83,1541.69c-103.85,178.1-434.16,378.29-1179.26,194.13c0,0-630.65-151.16-595.96-546.85
					c27.02-67.87,63.28-136.01,105.5-158.48c77.92-41.48,163.1-33.8,263.79,60.9c49.75,46.79,130.07,55.31,175.43,31.17
					c78.97-42.06,162.89-97.67,274.6-68.6c90.93,23.7,157.82,77.85,206.86,138.63c62.23,77.1,176.28,96.21,263.53,45.86
					c76.85-44.41,173.4-76.26,272.71-48.39C2743.71,1238.73,2780.44,1406.46,2782.83,1541.69z"/>
			</g>
			<g>
				<g class="st5">
					<path class="st6" d="M2237.97,466.15c-111.73-54.73-222.28-68.26-288.4-70.77c71.49,6.31,174.74,26.33,274.46,84.8
						C2224.03,480.17,2228.99,475.01,2237.97,466.15z"/>
				</g>
				<g class="st5">
					<path class="st6" d="M2797.12,230.25c-39.06-22.08-86.38-21.55-136.34-7.43c17.54,1.89,34.12,6.83,49.36,15.44
						c164.84,93.16,36.76,689.68,5.96,839.95c0,0,49.18,165.27,10.65,318.55c-5.69,22.68-15.46,47.01-30.01,71.9
						c-97.44,167.09-407.34,354.91-1106.39,182.14c0,0-591.68-141.82-559.14-513.06c3.72-42.99,15.93-89.07,38.29-138.32
						c-37.53,68.58-56.88,131.68-61.89,189.55c-34.69,395.7,595.96,546.85,595.96,546.85c745.09,184.16,1075.4-16.03,1179.26-194.13
						c15.52-26.53,25.93-52.46,31.99-76.64c41.07-163.37-11.35-339.53-11.35-339.53C2836.3,965.36,2972.82,329.55,2797.12,230.25z"
						/>
				</g>
			</g>
			<g class="st5">
				<path class="st6" d="M1972.21,1229.95c-34.27,32.29-56.07,48.73-110.55,35.43c-49.72-12.13-28.01-81.76-28.01-81.76l-55.3-10.51
					l-55.3-10.51c0,0-7.96,72.24-58.76,65.26c-55.67-7.64-69.19-30.79-87.85-73.14c0,0-40.14,83.96,40.88,121.18
					c76.74,35.25,130.28,31.68,156.81-82.68c-21.51,115.32,26.5,138.19,111.56,133.69
					C1975.5,1322.16,1972.21,1229.95,1972.21,1229.95z"/>
			</g>
			<g>
				<g>
					<path class="st6" d="M1652.21,1278.29c0,0,0.58,208.28,57.92,223.11c57.34,14.84,164.81-178.76,164.81-178.76
						s-98.36,4.97-106.27-108.67C1768.67,1213.96,1747.13,1304.66,1652.21,1278.29z"/>
				</g>
				<g>
					<path class="st9" d="M1670.09,1438.63c0,0,29.34-125.72,159.29-42.79c0,0-79.63,115.66-122.94,104.27
						C1663.12,1488.73,1670.09,1438.63,1670.09,1438.63z"/>
				</g>
				<g>
					<path class="st6" d="M1716.77,1521.01c-4.02,0-7.95-0.5-11.8-1.5c-33.1-8.56-53.7-50.77-64.83-132.82
						c-7.39-54.47-7.61-106.17-7.62-108.35c-0.02-5.91,2.89-11.49,7.85-15.05c4.96-3.56,11.38-4.68,17.34-3.02
						c22.69,6.3,41.91,5.21,57.13-3.24c26.29-14.61,34.57-46.97,34.65-47.29c2.16-9.09,10.99-15.26,20.73-14.52
						c9.75,0.73,17.44,8.21,18.09,17.51c2.8,40.21,18.17,67.68,45.7,81.62c20.19,10.23,39.69,9.56,39.89,9.55
						c7.07-0.35,13.81,2.94,17.63,8.64c3.82,5.69,4.12,12.91,0.81,18.88c-1.12,2.02-27.83,49.95-62.16,96.9
						C1784.28,1491.09,1747.83,1521.01,1716.77,1521.01z M1672.47,1301.25c0.78,19.92,2.58,50.28,6.75,80.93
						c10.22,75.09,27.47,98.88,36.06,101.11c7.74,2,34.96-11.34,82.43-76.19c18.44-25.2,34.88-51.22,45.84-69.35
						c-8.59-2.08-18.21-5.29-28.02-10.27c-19.08-9.67-41.15-27.3-54.6-59.25c-6.91,7.76-15.44,15.14-25.89,21.01
						C1716.64,1299.57,1695.67,1303.58,1672.47,1301.25z"/>
				</g>
			</g>
			<g>
				<path class="st6" d="M1906.68,1158.65c3.58-27.41-26.1-47.2-54.44-59.66c-30.94-13.61-64.96-20.07-99.01-18.82
					c-31.18,1.15-66.56,8.57-74.28,35.19c-10.03,34.6,41.1,69.7,73.1,87.83c15.6,8.84,33.81,12.3,51.78,9.84
					C1840.68,1207.99,1902.02,1194.27,1906.68,1158.65z"/>
			</g>
			<g>
				<path class="st7" d="M1838.29,1129.3c-1.18,5.62-29.75,4.93-63.82-1.55c-34.07-6.48-60.74-16.28-59.56-21.9
					c1.18-5.62,29.75-4.93,63.82,1.55S1839.46,1123.68,1838.29,1129.3z"/>
			</g>
			<g>
				<path class="st6" d="M1877.36,1342.05c-10.76,0-22.13-1.13-34.07-3.4c-35.83-6.81-62.02-23.18-77.83-48.66
					c-29.5-47.53-9.78-108.7-8.93-111.28c3.38-10.22,14.82-15.9,25.54-12.67c10.71,3.22,16.66,14.1,13.31,24.31
					c-0.25,0.78-15,47.65,5.21,80.02c9.82,15.72,26.39,25.61,50.66,30.22c28.69,5.45,51.67,2.41,68.3-9.04
					c24.22-16.68,28.73-46.6,28.77-46.9c1.38-10.64,11.56-18.19,22.71-16.88c11.16,1.32,19.09,11.01,17.71,21.65
					c-0.25,1.9-6.49,46.86-45.34,73.61C1924.99,1335.69,1902.87,1342.05,1877.36,1342.05z"/>
			</g>
			<g>
				<path class="st6" d="M1683.48,1301.04c-8.8,0-17.99-0.91-27.55-2.73c-38.9-7.39-66.92-24-83.29-49.34
					c-24.28-37.61-12.37-79.95-11.85-81.74c2.9-9.99,13.75-15.84,24.23-13.07c10.48,2.77,16.61,13.11,13.71,23.1
					c-0.05,0.18-7.74,28.83,7.62,52.31c10.43,15.95,29.71,26.69,57.28,31.93c23.46,4.46,42.1,1.49,56.98-9.07
					c30.73-21.82,35.72-69.12,35.77-69.6c1.01-10.3,10.58-17.9,21.39-16.96c10.8,0.94,18.78,10.01,17.82,20.31
					c-0.24,2.61-6.43,64.18-51.24,96.19C1726.95,1294.8,1706.55,1301.04,1683.48,1301.04z"/>
			</g>
			<g>
				<path class="st3" d="M2072.38,1131.04c-1.2-3.67-1.88-7.07-2.49-10.66c-0.26-1.77-0.48-3.55-0.67-5.34
					c-0.18-1.79-0.25-3.57-0.35-5.37c-0.29-7.2,0.21-14.47,1.52-21.78c2.62-14.57,8.57-29.42,18.94-42.81
					c5.24-6.62,11.55-12.83,18.81-18.1c1.84-1.29,3.63-2.67,5.59-3.8l5.87-3.45c4.07-1.98,8.17-4.08,12.46-5.55
					c4.26-1.69,8.6-2.83,12.98-3.98c2.18-0.5,4.36-0.89,6.56-1.32l3.3-0.58c1.09-0.15,2.18-0.25,3.26-0.38
					c2.18-0.23,4.36-0.47,6.54-0.67c2.16-0.12,4.29-0.14,6.44-0.2c4.35-0.21,8.46,0.13,12.63,0.35l3.12,0.19
					c1.05,0.08,2.12,0.25,3.18,0.39l6.37,0.89c2.1,0.24,4.29,0.8,6.42,1.27c2.15,0.5,4.28,0.95,6.42,1.53
					c2.15,0.65,4.3,1.32,6.43,2.03c1.07,0.36,2.13,0.68,3.19,1.09l3.17,1.31c2.11,0.89,4.21,1.76,6.27,2.77
					c2.05,1.08,4.09,2.17,6.11,3.28c7.95,4.71,15.47,10.35,21.63,17.06c6.22,6.63,11.21,14.03,15.05,21.59
					c7.53,15.27,10.21,31,9.95,45.81c-0.16,7.42-1.03,14.67-2.67,21.71c-0.74,3.52-1.8,6.99-2.92,10.4c-0.61,1.71-1.2,3.4-1.92,5.08
					l-1.1,2.52l-1.25,2.62c-1.79,3.75-6.42,5.41-10.35,3.7c-1.8-0.78-3.13-2.12-3.89-3.71l-0.84-1.77
					c-0.28-0.59-0.51-1.42-0.78-2.16l-0.75-2.27l-1.53-4.51c-1.01-2.99-2.07-5.93-3.14-8.8c-2.19-5.75-4.44-11.28-6.92-16.46
					c-2.47-5.19-5.14-10.04-7.99-14.43c-2.86-4.38-5.82-8.38-9.05-11.69c-3.17-3.36-6.52-6.1-9.87-8.46
					c-0.89-0.53-1.75-1.08-2.56-1.66c-0.88-0.51-1.8-0.95-2.66-1.44c-0.83-0.53-1.79-0.91-2.71-1.33c-0.93-0.4-1.76-0.91-2.78-1.21
					c-0.97-0.36-1.92-0.73-2.85-1.11c-0.98-0.34-2.05-0.57-3.03-0.92l-1.5-0.5c-0.51-0.15-1.08-0.24-1.61-0.37
					c-1.08-0.23-2.15-0.49-3.2-0.79c-1.1-0.23-2.28-0.37-3.4-0.58c-1.16-0.16-2.21-0.5-3.46-0.57l-3.62-0.4
					c-0.61-0.06-1.19-0.16-1.81-0.22l-1.9-0.1c-2.53-0.13-5.12-0.38-7.49-0.33c-1.21,0-2.44-0.06-3.63-0.05
					c-1.16,0.08-2.33,0.11-3.5,0.15c-0.58,0.02-1.18,0.02-1.75,0.05l-1.67,0.19c-1.12,0.11-2.26,0.16-3.37,0.29
					c-2.12,0.42-4.39,0.55-6.43,1.11c-2.16,0.35-4.15,1.01-6.25,1.54c-1,0.35-2.01,0.69-3.05,1.02c-0.53,0.14-1.02,0.36-1.51,0.58
					l-1.51,0.6c-4.01,1.69-8.08,3.74-12.1,6.4c-8.04,5.32-15.99,12.87-23.56,21.96c-3.79,4.55-7.46,9.46-11.15,14.66
					c-3.6,5.18-7.21,10.79-10.85,16.36l-0.23,0.36c-1.39,2.13-4.32,2.78-6.55,1.45C2073.4,1132.94,2072.71,1132.04,2072.38,1131.04z
					"/>
			</g>
			<g>
				
					<ellipse transform="matrix(0.433 -0.9014 0.9014 0.433 296.3503 1896.7151)" class="st7" cx="1655.87" cy="712.79" rx="53.8" ry="73.1"/>
			</g>
			<g>
				<path class="st10" d="M1410.95,596.23c73-38.43,156.83-74.82,284.17-127.38c28.23-11.65,28.37-33.29,27.77-48.3
					c-2.8-69.27-55.86-184.63-110.63-226.71c-81.33-62.5-200.94,238.23-243.15,365.35C1361.06,583.45,1387.59,608.52,1410.95,596.23
					z"/>
			</g>
			<g>
				<path class="st10" d="M2672.25,877.49c-47.84-75.33-107.24-154.41-199.08-271.92c-20.36-26.05-7.96-46.9,1.32-60.99
					c42.82-65.04,160.6-147.88,237.56-159.45c114.31-17.19,54.94,334.55,21.83,478.84C2727.56,891.49,2687.55,901.6,2672.25,877.49z
					"/>
			</g>
			<g>
				
					<ellipse transform="matrix(0.9921 -0.1258 0.1258 0.9921 -85.8044 281.076)" class="st7" cx="2182.91" cy="820.01" rx="73.78" ry="53.29"/>
			</g>
			<g class="st8">
				<path class="st7" d="M2797.12,230.25C2621.49,130.96,2279,488.1,2279,488.1c-146.56-85.93-352.04-98.85-414.29-98.07
					c2.61,7.39,6.66,20.09,10.51,32.36c4.75,15.13,19.08,25.65,35.64,26.16c61.92,1.91,218.03,14.64,361.4,90.87
					c14.17,7.54,31.85,5.12,43.17-5.96c77.51-75.86,369.25-345.59,521.4-264.64C2825.85,252.22,2812.74,239.08,2797.12,230.25z"/>
			</g>
			<g class="st8">
				<path class="st7" d="M1637.03,33.52c-80.51-16.53-208.23,101.77-340.19,374.96c-131.96,273.19-159.89,487.83-159.89,487.83
					c-83.15,109.63-121.91,206.87-129.34,292.66c-12.27,139.99,58.76,249.33,155.65,332.24
					c-74.14-77.14-123.44-173.69-113.06-292.18c7.43-85.79,50.65-210.31,133.8-319.94c0,0,7.26-57.74,36.23-155.75
					c1.53,0.74,3.08,1.42,4.73,1.92c30.58,9.3,70.1-27.16,88.27-81.45c18.17-54.29,8.12-105.84-22.46-115.14
					c-0.26-0.08-0.54-0.09-0.81-0.17c14.52-34.79,30.88-71.48,49.46-109.96c131.96-273.19,259.68-391.49,340.19-374.96
					c18.26,3.74,37.59,13.24,57.35,28.16C1702.6,63.06,1668.27,39.91,1637.03,33.52z"/>
			</g>
			<g>
				<path class="st3" d="M2137.91,1830.47c-146.7,0-324.73-20.63-539.95-73.81c-5.98-1.44-121.31-29.62-251.67-93.06
					c-77.36-37.65-143.79-79.95-197.43-125.72c-68.04-58.06-115.71-121.97-141.68-189.96c-53-138.75-16.6-293.44,108.19-459.83
					c2.41-16.02,10.65-65.49,30.2-138.58c21.65-80.98,61.93-207.45,130.81-350.05c63.06-130.54,129.85-234.81,193.14-301.54
					c62.73-66.13,122.28-95.68,172.22-85.44c47.08,9.66,96.66,49.15,143.38,114.2c45.33,63.12,86.3,148.25,118.95,247
					c21.75-0.74,61.18-0.7,111.06,5.43c66.17,8.12,163.52,28.93,259.81,81.68c27.85-27.68,98.54-95.21,183.71-156.06
					c64.26-45.91,123.39-78.31,175.77-96.3c69.46-23.86,128.08-22.74,174.22,3.34c24.43,13.81,44.56,36.49,59.83,67.43
					c13.22,26.77,23.2,60.6,29.66,100.56c10.91,67.45,12.31,155.1,4.17,260.51c-14.42,186.68-54.41,381.11-73.64,474.55
					c-0.71,3.48-1.4,6.8-2.05,9.96c3.71,13.62,13.7,53.19,20.32,106.73c7.48,60.54,11.78,151.06-10.18,238.54
					c-24.19,96.31-101.97,188.16-213.4,251.99C2525.01,1778.38,2371.01,1830.46,2137.91,1830.47z M1621.62,53.47
					c-65.64,0-181.42,109.62-304.29,363.98c-128.79,266.6-157.73,479.38-158.01,481.5c-0.47,3.59-1.88,7.01-4.1,9.94
					c-118.16,155.8-153.71,298.57-105.67,424.33c53.41,139.8,202,236.01,317.25,292.1c126.53,61.58,241.11,89.4,242.25,89.68
					c0.05,0.01,0.11,0.03,0.16,0.04c542.11,133.97,838.09,57.72,990.93-29.83c143.62-82.28,182.66-184.87,192.78-225.16
					c39.12-155.77-10.6-326.93-11.1-328.65c-0.96-3.24-1.11-6.66-0.44-9.96c0.94-4.58,1.96-9.54,3.05-14.87
					c19.05-92.61,58.69-285.32,72.91-469.43c7.89-102.17,6.63-186.56-3.77-250.8c-11.72-72.43-34.57-118.71-67.93-137.57
					c-79.94-45.18-206.99,24.03-299.49,90.05c-104.74,74.75-189.71,162.9-190.56,163.78c-7.3,7.6-19.23,9.2-28.44,3.8
					c-94.06-55.12-191.37-76.36-256.44-84.47c-71.02-8.85-120.27-4.44-120.76-4.4c-10.71,0.99-20.68-5.36-23.79-15.17
					C1796,180.82,1698.13,68.02,1632.25,54.51C1628.88,53.82,1625.32,53.47,1621.62,53.47z"/>
			</g>
			<g>
				<g>
					<g>
						<g>
							<path class="st11" d="M1592.91,813.64c-61.76-22.78-136.69,20.03-167.36,95.61c-30.67,75.58-5.46,155.31,56.31,178.08
								c61.76,22.77,136.69-20.03,167.36-95.61C1679.88,916.14,1654.67,836.41,1592.91,813.64z"/>
						</g>
					</g>
				</g>
				<g>
					<g>
						<g>
							<path class="st7" d="M1579.3,845.09c-22.17,1.63-38.3,25.8-36.02,53.98c2.28,28.18,22.1,49.71,44.27,48.08
								c22.17-1.63,38.3-25.8,36.02-53.98C1621.3,864.98,1601.48,843.46,1579.3,845.09z"/>
						</g>
					</g>
				</g>
				<g>
					<g>
						<g>
							<path class="st12" d="M1464.41,994.18c-11.23,3.38-16.5,17.7-11.76,31.98c4.73,14.27,17.68,23.1,28.9,19.72
								c11.23-3.38,16.5-17.7,11.76-31.97C1488.58,999.62,1475.64,990.79,1464.41,994.18z"/>
						</g>
					</g>
				</g>
			</g>
		</g>
		<text transform="matrix(1.049 0 0 1 1208.4878 2118.7627)" class="st3 st13 st14">Lynk</text>
	</g>
</g>
</svg>